# xmcd CD database file
# Copyright (C) 1993-1998 Ti Kan
#
# Track frame offsets:
#	150
#	21113
#	38950
#	59125
#	82950
#	100823
#	120188
#	138125
#	154950
#	168295
#	188325
#	202013
#	216413
#	232425
#	248463
#	260613
#
# Disc length: 3659 seconds
#
# Revision: 1
# Processed by: cddbd v1.5.2PL0 Copyright (c) Steve Scherf et al.
# Submitted via: QuintessentialCD v1.0 (c) 1998 Paul Quinn
#
DISCID=db0e4910
DTITLE=Various Artist - Soul Collection Vol. 1
DYEAR=1900
DGENRE=Soul
TTITLE0=Gladys Knights and The Pips
TTITLE1=Martha Reeves and the Vandellas
TTITLE2=Percy Sledge
TTITLE3=The Elgins
TTITLE4=The Contours
TTITLE5=Frankie Gaye
TTITLE6=Bobby Taylor and the Vancouvers
TTITLE7=Sisters Love
TTITLE8=Sam and Dave
TTITLE9=Jean, Sherrie and Linda of the Supremes
TTITLE10=Ben E. King and the Drifters
TTITLE11=Billy Ocean
TTITLE12=Harold Melvin and The Blue Notes
TTITLE13=The Velvettes
TTITLE14=The Thymes
TTITLE15=Jimmy Ruffin
EXTD=
EXTT0=
EXTT1=
EXTT2=
EXTT3=
EXTT4=
EXTT5=
EXTT6=
EXTT7=
EXTT8=
EXTT9=
EXTT10=
EXTT11=
EXTT12=
EXTT13=
EXTT14=
EXTT15=
PLAYORDER=
